<?xml version="1.0" encoding="UTF-8" standalone="no"?>
<!-- Created with Inkscape (http://www.inkscape.org/) -->

<svg
   width="100mm"
   height="100mm"
   viewBox="0 0 100 100"
   version="1.1"
   id="svg1"
   inkscape:version="1.3.2 (1:1.3.2+202311252150+091e20ef0f)"
   sodipodi:docname="drawing.svg"
   xmlns:inkscape="http://www.inkscape.org/namespaces/inkscape"
   xmlns:sodipodi="http://sodipodi.sourceforge.net/DTD/sodipodi-0.dtd"
   xmlns="http://www.w3.org/2000/svg"
   xmlns:svg="http://www.w3.org/2000/svg"
   xmlns:ns1="http://www.iki.fi/pav/software/textext/">
  <sodipodi:namedview
     id="namedview1"
     pagecolor="#ffffff"
     bordercolor="#cccccc"
     borderopacity="1"
     inkscape:showpageshadow="0"
     inkscape:pageopacity="1"
     inkscape:pagecheckerboard="0"
     inkscape:deskcolor="#d1d1d1"
     inkscape:document-units="mm"
     inkscape:zoom="1.7386905"
     inkscape:cx="185.48442"
     inkscape:cy="171.9685"
     inkscape:window-width="1876"
     inkscape:window-height="1006"
     inkscape:window-x="20"
     inkscape:window-y="50"
     inkscape:window-maximized="1"
     inkscape:current-layer="layer1" />
  <defs
     id="defs1" />
  <g
     inkscape:label="Layer 1"
     inkscape:groupmode="layer"
     id="layer1">
    <path
       style="fill:none;stroke:#000000;stroke-width:0.465;stroke-linecap:butt;stroke-linejoin:miter;stroke-dasharray:none;stroke-opacity:1"
       d="M 26.042345,37.069153 C 19.602243,31.356295 3.7310031,15.632199 14.780744,9.947719 46.664688,-6.4548019 42.600721,38.572426 51.323095,50.252407 60.735101,62.855874 97.963635,61.567048 94.803704,80.130009 91.069158,102.06854 40.867713,93.59444 29.417687,80.736672 16.7896,66.556008 40.386075,50.992197 26.042345,37.069153 Z"
       id="path1"
       sodipodi:nodetypes="cssssc" />
    <path
       style="fill:none;stroke:#000000;stroke-width:0.465;stroke-linecap:butt;stroke-linejoin:miter;stroke-dasharray:none;stroke-opacity:1"
       d="M 11.131367,17.271214 26.271429,75.524099"
       id="path2"
       sodipodi:nodetypes="cc" />
    <path
       style="fill:none;stroke:#000000;stroke-width:0.465001;stroke-linecap:butt;stroke-linejoin:miter;stroke-dasharray:none;stroke-opacity:1"
       d="M 36.557303,10.589861 91.369326,70.031718"
       id="path3"
       sodipodi:nodetypes="cc" />
    <path
       style="fill:none;stroke-width:1.75748;stroke-dasharray:none;fill-opacity:1;stroke:none;stroke-opacity:1"
       d="M 246.16227,352.20333 C 196.1561,348.84234 141.8127,330.94354 117.90483,309.95984 104.28656,298.00721 94.528176,280.56273 90.905927,261.6955 89.191867,252.76743 88.61441,245.85849 87.997261,226.8949 87.377296,207.84472 86.804073,201.02927 85.056184,191.92636 82.664198,179.46902 77.531003,167.43079 70.310419,157.34499 68.175806,154.36333 63.053426,148.40147 58.927353,144.0964 47.02269,131.6753 40.594615,120.66018 36.001767,104.81123 32.631669,93.181721 31.699358,79.125846 33.664447,69.572893 36.358178,56.477769 43.444756,46.198136 54.063677,39.982222 63.165775,34.654199 79.375469,28.539129 90.872989,26.095994 c 8.253798,-1.753869 24.854391,-1.903393 32.208151,-0.290102 24.95052,5.473727 45.78043,22.134074 65.891,52.701469 8.90158,13.530108 13.5145,21.968489 28.454,52.050669 19.23983,38.74132 23.03187,45.06536 33.04972,55.11738 10.17903,10.21373 20.64891,17.65396 48.31223,34.3322 23.83003,14.36714 32.24233,20.37116 41.21973,29.41926 10.98266,11.06919 16.28605,21.62824 17.82803,35.49562 1.3624,12.2524 -1.27103,25.25057 -7.08072,34.9491 -2.57197,4.2936 -8.83313,10.95645 -13.59549,14.46775 -19.04493,14.04185 -51.90018,20.49177 -90.99737,17.86399 z"
       id="path4"
       transform="scale(0.26458333)" />
    <path
       style="fill:none;fill-opacity:1;stroke:none;stroke-width:1.75748;stroke-dasharray:none;stroke-opacity:1"
       d="M 72.008581,176.16798 C 59.160551,126.69556 48.584013,85.852108 48.505164,85.404749 c -0.176164,-0.99948 -0.337058,-1.220078 4.110802,5.636218 3.69841,5.701033 9.01318,12.694433 14.724538,19.375173 3.839949,4.4917 19.849538,20.72402 30.08317,30.5017 12.951036,12.37401 18.558216,25.47081 17.934056,41.88899 -0.40865,10.74964 -1.91948,17.06259 -9.83032,41.07562 -6.965425,21.14328 -8.596261,27.49869 -9.680608,37.72562 l -0.478165,4.50975 z"
       id="path6"
       transform="scale(0.26458333)" />
    <path
       style="fill:none;fill-opacity:1;stroke:none;stroke-width:1.75748;stroke-dasharray:none;stroke-opacity:1"
       d="M 72.008581,176.16798 C 59.160551,126.69556 48.584013,85.852108 48.505164,85.404749 c -0.176164,-0.99948 -0.337058,-1.220078 4.110802,5.636218 3.69841,5.701033 9.01318,12.694433 14.724538,19.375173 3.839949,4.4917 19.849538,20.72402 30.08317,30.5017 12.951036,12.37401 18.558216,25.47081 17.934056,41.88899 -0.40865,10.74964 -1.91948,17.06259 -9.83032,41.07562 -6.965425,21.14328 -8.596261,27.49869 -9.680608,37.72562 l -0.478165,4.50975 z"
       id="path7"
       transform="scale(0.26458333)" />
    <path
       style="fill:none;fill-opacity:1;stroke:none;stroke-width:1.75748;stroke-dasharray:none;stroke-opacity:1"
       d="m 332.26514,253.71849 c -3.61821,-2.28791 -13.8355,-7.31428 -20.56011,-10.1145 -8.94056,-3.72296 -17.25536,-6.70886 -39.75854,-14.27754 -27.69736,-9.3157 -37.82839,-13.21748 -49.43344,-19.03839 -16.01516,-8.03297 -25.61908,-16.31076 -31.51634,-27.16451 -5.47322,-10.07333 -9.0995,-21.85859 -17.16557,-55.78748 -2.558,-10.75988 -5.66452,-23.31512 -6.90339,-27.90054 -4.22371,-15.633178 -10.4106,-32.704403 -14.86955,-41.028919 -0.88483,-1.651909 -1.55727,-3.053782 -1.4943,-3.115273 0.063,-0.06149 32.69029,35.218165 72.50517,78.399232 39.81488,43.18108 81.31471,88.18512 92.22185,100.009 10.90713,11.82387 19.69162,21.48341 19.52108,21.46564 -0.17053,-0.0178 -1.31662,-0.6688 -2.54686,-1.44672 z M 228.96607,183.91506 c 0,-0.40498 -5.33685,-16.77546 -6.31653,-19.37558 -0.13228,-0.35107 -0.3635,-0.43003 -0.59153,-0.202 -0.28604,0.28604 3.83135,13.99589 5.88266,19.58775 0.24403,0.66521 1.0254,0.65746 1.0254,-0.0102 z m -18.43076,-5.31602 c 1.34183,-1.2297 1.60679,-1.84751 2.74708,-6.40535 1.04239,-4.16656 1.41987,-5.11426 2.16916,-5.44585 1.5005,-0.66404 1.03483,-1.02196 -1.32964,-1.02196 -1.23024,0 -2.23679,0.18301 -2.23679,0.40669 0,0.22368 0.26371,0.40669 0.58603,0.40669 1.06395,0 1.06196,0.70754 -0.0148,5.29972 -1.18213,5.0413 -2.23587,6.71574 -4.49866,7.1486 -1.07389,0.20543 -1.39608,0.0746 -1.96894,-0.79972 -0.64775,-0.98859 -0.63538,-1.28353 0.22778,-5.43192 1.17171,-5.63131 1.39817,-6.21668 2.40506,-6.21668 0.45289,0 0.82344,-0.18301 0.82344,-0.40669 0,-0.22941 -1.15228,-0.40669 -2.64348,-0.40669 -1.4912,0 -2.64348,0.17728 -2.64348,0.40669 0,0.22368 0.34619,0.40669 0.76931,0.40669 0.75424,0 0.75433,0.0657 0.005,3.35519 -1.51585,6.65244 -1.50177,7.72918 0.12089,9.24092 1.42624,1.32875 3.68867,1.10741 5.4823,-0.53633 z m 35.49133,-1.51952 c 0.4961,-1.36059 0.77008,-2.5959 0.60885,-2.74515 -0.16123,-0.14925 -0.36211,-0.0808 -0.4464,0.1521 -0.56066,1.54913 -1.79882,3.31244 -2.62555,3.73911 -1.0515,0.54269 -5.24508,0.71018 -5.24135,0.20934 0.001,-0.16776 0.16649,-0.94555 0.36722,-1.72843 0.20072,-0.78287 0.4777,-1.92669 0.61551,-2.5418 0.2146,-0.95789 0.45374,-1.1184 1.66623,-1.1184 1.23892,0 1.41566,0.12694 1.41566,1.01672 0,1.26557 0.72473,1.33884 1.00569,0.10168 0.79044,-3.48069 0.90618,-4.37191 0.56777,-4.37191 -0.20544,0 -0.54747,0.45752 -0.76008,1.01672 -0.3127,0.82246 -0.66397,1.01672 -1.83846,1.01672 h -1.45191 l 0.28514,-1.52508 c 0.68774,-3.67845 0.57477,-3.55902 3.36164,-3.55382 2.84218,0.005 3.28384,0.35806 3.30379,2.63877 0.009,1.07001 0.11034,1.27195 0.40669,0.81337 0.21683,-0.33551 0.39704,-1.47933 0.40047,-2.5418 l 0.006,-1.93178 h -5.08361 c -3.11796,0 -5.08362,0.15726 -5.08362,0.40669 0,0.22368 0.36951,0.40669 0.82113,0.40669 0.6927,0 0.77722,0.17492 0.5404,1.1184 -0.15441,0.61511 -0.76483,3.31451 -1.35652,5.99866 -0.94937,4.30679 -1.18014,4.89555 -1.96381,5.01023 -0.48841,0.0715 -0.88802,0.30024 -0.88802,0.50836 0,0.21381 2.27603,0.37841 5.23246,0.37841 h 5.23247 z"
       id="path8"
       transform="scale(0.26458333)" />
    <path
       style="fill:none;fill-opacity:1;stroke:none;stroke-width:1.75748;stroke-dasharray:none;stroke-opacity:1"
       d="m 332.26514,253.71849 c -3.61821,-2.28791 -13.8355,-7.31428 -20.56011,-10.1145 -8.94056,-3.72296 -17.25536,-6.70886 -39.75854,-14.27754 -27.69736,-9.3157 -37.82839,-13.21748 -49.43344,-19.03839 -16.01516,-8.03297 -25.61908,-16.31076 -31.51634,-27.16451 -5.47322,-10.07333 -9.0995,-21.85859 -17.16557,-55.78748 -2.558,-10.75988 -5.66452,-23.31512 -6.90339,-27.90054 -4.22371,-15.633178 -10.4106,-32.704403 -14.86955,-41.028919 -0.88483,-1.651909 -1.55727,-3.053782 -1.4943,-3.115273 0.063,-0.06149 32.69029,35.218165 72.50517,78.399232 39.81488,43.18108 81.31471,88.18512 92.22185,100.009 10.90713,11.82387 19.69162,21.48341 19.52108,21.46564 -0.17053,-0.0178 -1.31662,-0.6688 -2.54686,-1.44672 z M 228.96607,183.91506 c 0,-0.40498 -5.33685,-16.77546 -6.31653,-19.37558 -0.13228,-0.35107 -0.3635,-0.43003 -0.59153,-0.202 -0.28604,0.28604 3.83135,13.99589 5.88266,19.58775 0.24403,0.66521 1.0254,0.65746 1.0254,-0.0102 z m -18.43076,-5.31602 c 1.34183,-1.2297 1.60679,-1.84751 2.74708,-6.40535 1.04239,-4.16656 1.41987,-5.11426 2.16916,-5.44585 1.5005,-0.66404 1.03483,-1.02196 -1.32964,-1.02196 -1.23024,0 -2.23679,0.18301 -2.23679,0.40669 0,0.22368 0.26371,0.40669 0.58603,0.40669 1.06395,0 1.06196,0.70754 -0.0148,5.29972 -1.18213,5.0413 -2.23587,6.71574 -4.49866,7.1486 -1.07389,0.20543 -1.39608,0.0746 -1.96894,-0.79972 -0.64775,-0.98859 -0.63538,-1.28353 0.22778,-5.43192 1.17171,-5.63131 1.39817,-6.21668 2.40506,-6.21668 0.45289,0 0.82344,-0.18301 0.82344,-0.40669 0,-0.22941 -1.15228,-0.40669 -2.64348,-0.40669 -1.4912,0 -2.64348,0.17728 -2.64348,0.40669 0,0.22368 0.34619,0.40669 0.76931,0.40669 0.75424,0 0.75433,0.0657 0.005,3.35519 -1.51585,6.65244 -1.50177,7.72918 0.12089,9.24092 1.42624,1.32875 3.68867,1.10741 5.4823,-0.53633 z m 35.49133,-1.51952 c 0.4961,-1.36059 0.77008,-2.5959 0.60885,-2.74515 -0.16123,-0.14925 -0.36211,-0.0808 -0.4464,0.1521 -0.56066,1.54913 -1.79882,3.31244 -2.62555,3.73911 -1.0515,0.54269 -5.24508,0.71018 -5.24135,0.20934 0.001,-0.16776 0.16649,-0.94555 0.36722,-1.72843 0.20072,-0.78287 0.4777,-1.92669 0.61551,-2.5418 0.2146,-0.95789 0.45374,-1.1184 1.66623,-1.1184 1.23892,0 1.41566,0.12694 1.41566,1.01672 0,1.26557 0.72473,1.33884 1.00569,0.10168 0.79044,-3.48069 0.90618,-4.37191 0.56777,-4.37191 -0.20544,0 -0.54747,0.45752 -0.76008,1.01672 -0.3127,0.82246 -0.66397,1.01672 -1.83846,1.01672 h -1.45191 l 0.28514,-1.52508 c 0.68774,-3.67845 0.57477,-3.55902 3.36164,-3.55382 2.84218,0.005 3.28384,0.35806 3.30379,2.63877 0.009,1.07001 0.11034,1.27195 0.40669,0.81337 0.21683,-0.33551 0.39704,-1.47933 0.40047,-2.5418 l 0.006,-1.93178 h -5.08361 c -3.11796,0 -5.08362,0.15726 -5.08362,0.40669 0,0.22368 0.36951,0.40669 0.82113,0.40669 0.6927,0 0.77722,0.17492 0.5404,1.1184 -0.15441,0.61511 -0.76483,3.31451 -1.35652,5.99866 -0.94937,4.30679 -1.18014,4.89555 -1.96381,5.01023 -0.48841,0.0715 -0.88802,0.30024 -0.88802,0.50836 0,0.21381 2.27603,0.37841 5.23246,0.37841 h 5.23247 z"
       id="path9"
       transform="scale(0.26458333)" />
    <path
       style="fill:none;fill-opacity:1;stroke:none;stroke-width:1.75748;stroke-dasharray:none;stroke-opacity:1"
       d="m 250.31725,352.53544 c -34.14813,-2.03032 -68.16263,-9.62469 -96.54805,-21.55616 -17.83613,-7.49721 -31.19973,-15.79577 -39.93542,-24.79922 -13.846495,-14.27089 -18.523922,-30.16633 -14.986872,-50.93032 1.204852,-7.07299 2.900722,-13.00487 8.909482,-31.16395 8.18622,-24.73957 9.52666,-30.78781 9.55405,-43.10906 0.0199,-8.94626 -0.42137,-11.96319 -2.70646,-18.50436 -3.1306,-8.96151 -7.19146,-14.75723 -16.953353,-24.1961 C 84.117073,125.19054 74.71229,115.57924 69.46084,109.46744 59.748554,98.164003 53.229663,88.957099 48.816699,80.31086 44.146568,71.160754 42.480103,64.995831 42.798513,58.047161 c 0.240546,-5.249459 1.154257,-7.960309 3.909597,-11.599214 3.56318,-4.705799 8.51274,-7.844955 20.192277,-12.806534 9.593538,-4.075427 17.11364,-6.342046 25.368854,-7.646379 6.370276,-1.006511 16.777089,-0.644284 22.123239,0.770035 16.3627,4.328739 29.04583,17.140166 38.93037,39.32416 6.02813,13.529007 10.72849,29.208998 18.10334,60.391141 7.32339,30.96457 10.44446,41.79313 15.12656,52.48157 6.34717,14.48949 16.35251,23.9414 35.49337,33.53009 11.53665,5.77933 21.70513,9.66286 51.65577,19.72833 28.18532,9.4722 37.45845,13.02242 48.80592,18.6854 27.39699,13.67251 38.27424,29.73136 34.77053,51.33417 -1.68419,10.38415 -6.17964,19.15401 -13.619,26.56835 -4.80125,4.7851 -9.52644,8.14699 -16.20677,11.53082 -13.26999,6.72173 -29.3543,10.6205 -49.68379,12.04314 -5.28907,0.37013 -22.21437,0.46458 -27.45153,0.1532 z M 122.42965,51.611803 c 1.07757,-2.513875 1.37971,-3.825812 0.88107,-3.825812 -0.22604,0 -0.61559,0.58691 -0.86565,1.304244 -0.86365,2.47746 -1.90701,3.169338 -4.77941,3.169338 -1.41493,0 -2.57259,-0.09965 -2.57259,-0.221436 0,-0.12179 0.29921,-1.412614 0.66492,-2.868499 0.65275,-2.598637 0.6881,-2.644806 1.93177,-2.523717 1.04255,0.101508 1.28964,0.321361 1.39554,1.241742 0.20718,1.800597 0.79421,1.292605 1.29524,-1.120861 0.60675,-2.922683 0.39627,-4.123884 -0.42712,-2.43767 -0.45069,0.922947 -0.91696,1.251103 -1.91468,1.347507 -1.49649,0.144598 -1.48003,0.200455 -0.85608,-2.906436 l 0.46283,-2.304619 2.28232,0.0062 c 2.89779,0.0079 3.47241,0.378008 3.42067,2.203186 -0.0425,1.499291 0.41841,1.936334 0.85158,0.807494 0.13578,-0.353813 0.24686,-1.360369 0.24686,-2.236791 v -1.593494 h -5.08362 c -3.11795,0 -5.08361,0.157253 -5.08361,0.406689 0,0.223679 0.33704,0.40669 0.74898,0.40669 0.70238,0 0.66908,0.359067 -0.53508,5.770338 -1.20409,5.410932 -1.35206,5.793003 -2.37574,6.13423 -2.26998,0.756658 -0.93123,1.109489 4.20974,1.109489 h 5.30141 z"
       id="path10"
       transform="scale(0.26458333)" />
    <path
       style="fill:#cacad2;fill-opacity:1;stroke:none;stroke-width:1.75748;stroke-dasharray:none;stroke-opacity:1"
       d="M 246.16227,352.20333 C 202.33594,349.2577 153.90668,334.8981 127.10991,316.90351 108.33584,304.29633 98.919122,289.43497 97.956256,270.89353 c -0.612816,-11.80071 1.166689,-20.35411 9.527614,-45.79563 8.71617,-26.52248 10.02462,-32.38937 9.98919,-44.78979 -0.0267,-9.34892 -1.57318,-16.21305 -5.33963,-23.70048 -3.74416,-7.44314 -7.1858,-11.57877 -19.349544,-23.25128 C 68.990175,110.52353 56.170179,94.804597 48.284859,78.794933 44.75159,71.621293 42.572152,64.271365 42.564796,59.50461 42.554086,52.564558 46.082979,45.665309 51.714489,41.616275 57.963824,37.123028 72.787873,30.773732 83.971243,27.80037 c 8.675463,-2.306577 21.390567,-2.92003 28.537337,-1.376812 9.87523,2.132383 20.3712,8.792084 27.33545,17.344356 12.1272,14.89252 20.0505,35.050011 29.81918,75.862346 8.71292,36.40152 12.16229,48.59767 16.71033,59.08371 6.24469,14.39785 16.52684,24.22978 35.03942,33.50517 12.94129,6.484 20.71358,9.45411 54.94445,20.99649 24.3401,8.2073 33.21177,11.59803 44.4545,16.99039 10.89779,5.22693 18.32907,10.26437 24.88865,16.87126 9.0975,9.16312 12.51518,17.77933 11.87173,29.92945 -0.98306,18.56315 -10.84567,33.03135 -29.16421,42.78317 -19.06998,10.15185 -48.90242,14.65449 -82.24581,12.41343 z"
       id="path12"
       transform="scale(0.26458333)" />
    <path
       style="fill:#ccccf7;fill-opacity:1;stroke:none;stroke-width:1.75748;stroke-dasharray:none;stroke-opacity:1"
       d="M 71.951371,175.66699 C 59.204684,126.61386 48.882089,86.37296 49.012273,86.242777 c 0.130183,-0.130183 1.697162,2.023027 3.482176,4.784912 7.672858,11.871921 21.675875,28.004151 35.602939,41.016501 14.967672,13.98461 18.143452,17.75102 22.301982,26.44959 3.70239,7.74445 4.76992,12.67376 4.78657,22.10191 0.0196,11.06276 -1.57412,18.27627 -9.11303,41.24917 -6.611804,20.14776 -8.970767,28.94742 -10.042414,37.46129 -0.384106,3.05159 -0.744489,5.54835 -0.800851,5.54835 -0.05636,0 -10.531586,-40.13438 -23.278274,-89.18751 z"
       id="path13"
       transform="scale(0.26458333)" />
    <path
       style="fill:#ccccf7;fill-opacity:1;stroke:none;stroke-width:1.75748;stroke-dasharray:none;stroke-opacity:1"
       d="m 324.06902,249.34267 c -11.33026,-5.81985 -21.34918,-9.69482 -50.58734,-19.56543 -27.29183,-9.21355 -39.8743,-14.0339 -50.31428,-19.27543 -10.39627,-5.21958 -17.32139,-9.97696 -23.33982,-16.03384 C 188.96949,183.54049 184.57373,172.17736 173.99197,127.6823 165.39849,91.547758 159.834,73.663171 152.92881,59.984057 c -0.95747,-1.896743 -1.65921,-3.521645 -1.55942,-3.610893 0.15252,-0.136401 170.08796,183.916946 179.24143,194.132446 1.686,1.88162 2.85067,3.38972 2.58815,3.35133 -0.26251,-0.0384 -4.37099,-2.06981 -9.12995,-4.51427 z"
       id="path14"
       transform="scale(0.26458333)" />
    <g
       transform="matrix(0.47795212,0,0,0.53107135,58.655127,48.515885)"
       ns1:version="1.10.2"
       ns1:texconverter="pdflatex"
       ns1:pdfconverter="inkscape"
       ns1:text="$U \\setminus E$"
       ns1:preamble="/home/rushil/.config/inkscape/extensions/textext/default_packages.tex"
       ns1:scale="1.0"
       ns1:alignment="middle center"
       ns1:stroke-to-path="0"
       id="g6553"
       ns1:jacobian_sqrt="0.352778"
       style="fill:#1e1ed5;fill-opacity:1;stroke-width:0.700217">
      <defs
         id="id-1dd49258-bfb8-47b4-be24-2037f68555c5">
        <g
           id="id-1c0d3278-38e8-4c2a-925b-0e31d8d3c526">
          <symbol
             overflow="visible"
             id="id-1028bdaa-c485-4262-9e19-df8ae6d1439c">
            <path
               style="stroke:none;stroke-width:0"
               d=""
               id="id-a4c97793-0f02-489c-b05a-55964a8a43dc" />
          </symbol>
          <symbol
             overflow="visible"
             id="id-922be350-94a2-4f6c-8d24-0e35e0135f69">
            <path
               style="stroke:none;stroke-width:0"
               d="M 6.328125,-5.765625 C 6.4375,-6.171875 6.609375,-6.46875 7.40625,-6.5 c 0.046875,0 0.171875,-0.015625 0.171875,-0.203125 0,0 0,-0.109375 -0.125,-0.109375 -0.328125,0 -0.6875,0.03125 -1.015625,0.03125 -0.34375,0 -0.71875,-0.03125 -1.046875,-0.03125 -0.0625,0 -0.171875,0 -0.171875,0.203125 C 5.21875,-6.5 5.3125,-6.5 5.390625,-6.5 c 0.578125,0.015625 0.6875,0.21875 0.6875,0.4375 0,0.03125 -0.03125,0.1875 -0.03125,0.203125 l -0.90625,3.5625 C 4.8125,-0.953125 3.65625,-0.09375 2.65625,-0.09375 c -0.671875,0 -1.203125,-0.4375 -1.203125,-1.296875 0,-0.015625 0,-0.328125 0.109375,-0.765625 L 2.515625,-6.046875 C 2.609375,-6.40625 2.625,-6.5 3.359375,-6.5 c 0.265625,0 0.34375,0 0.34375,-0.203125 0,-0.109375 -0.109375,-0.109375 -0.140625,-0.109375 -0.28125,0 -1,0.03125 -1.28125,0.03125 -0.28125,0 -1,-0.03125 -1.28125,-0.03125 -0.078125,0 -0.1875,0 -0.1875,0.203125 C 0.8125,-6.5 0.890625,-6.5 1.09375,-6.5 c 0.015625,0 0.203125,0 0.375,0.015625 0.171875,0.03125 0.265625,0.03125 0.265625,0.171875 0,0.046875 -0.109375,0.46875 -0.171875,0.703125 l -0.21875,0.875 C 1.25,-4.34375 0.78125,-2.46875 0.734375,-2.265625 0.671875,-2 0.671875,-1.84375 0.671875,-1.6875 c 0,1.203125 0.90625,1.90625 1.953125,1.90625 1.25,0 2.484375,-1.125 2.8125,-2.4375 z m 0,0"
               id="id-637c37d6-2c2e-4347-9a41-df6da68d29d2" />
          </symbol>
          <symbol
             overflow="visible"
             id="id-d33cc76d-a228-4038-9b81-f3523db7eddf">
            <path
               style="stroke:none;stroke-width:0"
               d="M 7.0625,-2.328125 C 7.078125,-2.375 7.109375,-2.4375 7.109375,-2.46875 c 0,0 0,-0.109375 -0.125,-0.109375 -0.09375,0 -0.109375,0.0625 -0.125,0.125 C 6.203125,-0.984375 5.84375,-0.3125 4.140625,-0.3125 H 2.6875 c -0.140625,0 -0.171875,0 -0.21875,0 -0.109375,-0.015625 -0.140625,-0.03125 -0.140625,-0.109375 0,-0.03125 0,-0.046875 0.046875,-0.21875 L 3.0625,-3.375 h 0.984375 c 0.84375,0 0.84375,0.21875 0.84375,0.46875 0,0.0625 0,0.1875 -0.0625,0.484375 C 4.8125,-2.375 4.796875,-2.34375 4.796875,-2.3125 c 0,0.046875 0.03125,0.109375 0.125,0.109375 C 5,-2.203125 5.03125,-2.25 5.078125,-2.40625 l 0.5625,-2.328125 c 0,-0.0625 -0.046875,-0.109375 -0.125,-0.109375 -0.078125,0 -0.109375,0.0625 -0.125,0.171875 -0.21875,0.765625 -0.390625,1 -1.3125,1 h -0.9375 l 0.59375,-2.40625 C 3.828125,-6.4375 3.84375,-6.46875 4.28125,-6.46875 H 5.6875 c 1.203125,0 1.515625,0.28125 1.515625,1.109375 0,0.234375 0,0.25 -0.046875,0.53125 0,0.046875 -0.015625,0.125 -0.015625,0.171875 0,0.046875 0.03125,0.125 0.125,0.125 0.109375,0 0.125,-0.0625 0.140625,-0.25 L 7.609375,-6.515625 C 7.640625,-6.78125 7.59375,-6.78125 7.34375,-6.78125 H 2.296875 c -0.1875,0 -0.296875,0 -0.296875,0.203125 0,0.109375 0.09375,0.109375 0.28125,0.109375 0.375,0 0.65625,0 0.65625,0.171875 0,0.046875 0,0.0625 -0.0625,0.25 L 1.5625,-0.78125 c -0.09375,0.390625 -0.109375,0.46875 -0.90625,0.46875 -0.171875,0 -0.28125,0 -0.28125,0.1875 C 0.375,0 0.46875,0 0.65625,0 h 5.171875 c 0.234375,0 0.25,-0.015625 0.3125,-0.171875 z m 0,0"
               id="id-46a2c5b1-0ccb-4339-81a2-5ca803b0e237" />
          </symbol>
          <symbol
             overflow="visible"
             id="id-004b8b55-81e4-4f5b-9b46-4cb76eb7a42c">
            <path
               style="stroke:none;stroke-width:0"
               d=""
               id="id-dcd7ab62-6524-4a28-b0af-31f538156855" />
          </symbol>
          <symbol
             overflow="visible"
             id="id-f0073eda-977c-4d7f-a41d-93439038c9b8">
            <path
               style="stroke:none;stroke-width:0"
               d="m 4,2.25 c 0.046875,0.140625 0.09375,0.25 0.234375,0.25 0.109375,0 0.1875,-0.09375 0.1875,-0.203125 0,-0.03125 0,-0.046875 -0.046875,-0.15625 l -3.40625,-9.375 c -0.0625,-0.171875 -0.09375,-0.25 -0.21875,-0.25 -0.109375,0 -0.203125,0.09375 -0.203125,0.203125 0,0.03125 0,0.046875 0.046875,0.15625 z m 0,0"
               id="id-66fe9251-4912-4eb3-afff-a0a74b76f62e" />
          </symbol>
        </g>
      </defs>
      <g
         id="id-9437e33a-7ade-43ae-af45-b5a7d1353154"
         transform="translate(-149.384,-127.281)"
         style="fill:#1e1ed5;fill-opacity:1;stroke-width:0.700217">
        <g
           style="fill:#1e1ed5;fill-opacity:1;stroke-width:0.700217"
           id="id-93180a3b-111a-4ccd-bd18-61153976e7c7">
          <g
             transform="translate(148.712,134.765)"
             id="g4995"
             style="fill:#1e1ed5;fill-opacity:1;stroke-width:0.700217">
            <path
               style="fill:#1e1ed5;fill-opacity:1;stroke:none;stroke-width:0"
               d="M 6.328125,-5.765625 C 6.4375,-6.171875 6.609375,-6.46875 7.40625,-6.5 c 0.046875,0 0.171875,-0.015625 0.171875,-0.203125 0,0 0,-0.109375 -0.125,-0.109375 -0.328125,0 -0.6875,0.03125 -1.015625,0.03125 -0.34375,0 -0.71875,-0.03125 -1.046875,-0.03125 -0.0625,0 -0.171875,0 -0.171875,0.203125 C 5.21875,-6.5 5.3125,-6.5 5.390625,-6.5 c 0.578125,0.015625 0.6875,0.21875 0.6875,0.4375 0,0.03125 -0.03125,0.1875 -0.03125,0.203125 l -0.90625,3.5625 C 4.8125,-0.953125 3.65625,-0.09375 2.65625,-0.09375 c -0.671875,0 -1.203125,-0.4375 -1.203125,-1.296875 0,-0.015625 0,-0.328125 0.109375,-0.765625 L 2.515625,-6.046875 C 2.609375,-6.40625 2.625,-6.5 3.359375,-6.5 c 0.265625,0 0.34375,0 0.34375,-0.203125 0,-0.109375 -0.109375,-0.109375 -0.140625,-0.109375 -0.28125,0 -1,0.03125 -1.28125,0.03125 -0.28125,0 -1,-0.03125 -1.28125,-0.03125 -0.078125,0 -0.1875,0 -0.1875,0.203125 C 0.8125,-6.5 0.890625,-6.5 1.09375,-6.5 c 0.015625,0 0.203125,0 0.375,0.015625 0.171875,0.03125 0.265625,0.03125 0.265625,0.171875 0,0.046875 -0.109375,0.46875 -0.171875,0.703125 l -0.21875,0.875 C 1.25,-4.34375 0.78125,-2.46875 0.734375,-2.265625 0.671875,-2 0.671875,-1.84375 0.671875,-1.6875 c 0,1.203125 0.90625,1.90625 1.953125,1.90625 1.25,0 2.484375,-1.125 2.8125,-2.4375 z m 0,0"
               id="id-71feceff-2e4c-4863-968b-dd727eedb625" />
          </g>
        </g>
        <g
           style="fill:#1e1ed5;fill-opacity:1;stroke-width:0.700217"
           id="id-359878a6-dd57-4f89-b183-12c1d3c15f04">
          <g
             transform="translate(158.815,134.765)"
             id="g5803"
             style="fill:#1e1ed5;fill-opacity:1;stroke-width:0.700217">
            <path
               style="fill:#1e1ed5;fill-opacity:1;stroke:none;stroke-width:0"
               d="m 4,2.25 c 0.046875,0.140625 0.09375,0.25 0.234375,0.25 0.109375,0 0.1875,-0.09375 0.1875,-0.203125 0,-0.03125 0,-0.046875 -0.046875,-0.15625 l -3.40625,-9.375 c -0.0625,-0.171875 -0.09375,-0.25 -0.21875,-0.25 -0.109375,0 -0.203125,0.09375 -0.203125,0.203125 0,0.03125 0,0.046875 0.046875,0.15625 z m 0,0"
               id="id-ca4e3752-9445-4403-83a6-57613d276d17" />
          </g>
        </g>
        <g
           style="fill:#1e1ed5;fill-opacity:1;stroke-width:0.700217"
           id="id-4a8cacc1-8a3b-4c0b-91bf-86007c31b1b5">
          <g
             transform="translate(166.01,134.765)"
             id="g9698"
             style="fill:#1e1ed5;fill-opacity:1;stroke-width:0.700217">
            <path
               style="fill:#1e1ed5;fill-opacity:1;stroke:none;stroke-width:0"
               d="M 7.0625,-2.328125 C 7.078125,-2.375 7.109375,-2.4375 7.109375,-2.46875 c 0,0 0,-0.109375 -0.125,-0.109375 -0.09375,0 -0.109375,0.0625 -0.125,0.125 C 6.203125,-0.984375 5.84375,-0.3125 4.140625,-0.3125 H 2.6875 c -0.140625,0 -0.171875,0 -0.21875,0 -0.109375,-0.015625 -0.140625,-0.03125 -0.140625,-0.109375 0,-0.03125 0,-0.046875 0.046875,-0.21875 L 3.0625,-3.375 h 0.984375 c 0.84375,0 0.84375,0.21875 0.84375,0.46875 0,0.0625 0,0.1875 -0.0625,0.484375 C 4.8125,-2.375 4.796875,-2.34375 4.796875,-2.3125 c 0,0.046875 0.03125,0.109375 0.125,0.109375 C 5,-2.203125 5.03125,-2.25 5.078125,-2.40625 l 0.5625,-2.328125 c 0,-0.0625 -0.046875,-0.109375 -0.125,-0.109375 -0.078125,0 -0.109375,0.0625 -0.125,0.171875 -0.21875,0.765625 -0.390625,1 -1.3125,1 h -0.9375 l 0.59375,-2.40625 C 3.828125,-6.4375 3.84375,-6.46875 4.28125,-6.46875 H 5.6875 c 1.203125,0 1.515625,0.28125 1.515625,1.109375 0,0.234375 0,0.25 -0.046875,0.53125 0,0.046875 -0.015625,0.125 -0.015625,0.171875 0,0.046875 0.03125,0.125 0.125,0.125 0.109375,0 0.125,-0.0625 0.140625,-0.25 L 7.609375,-6.515625 C 7.640625,-6.78125 7.59375,-6.78125 7.34375,-6.78125 H 2.296875 c -0.1875,0 -0.296875,0 -0.296875,0.203125 0,0.109375 0.09375,0.109375 0.28125,0.109375 0.375,0 0.65625,0 0.65625,0.171875 0,0.046875 0,0.0625 -0.0625,0.25 L 1.5625,-0.78125 c -0.09375,0.390625 -0.109375,0.46875 -0.90625,0.46875 -0.171875,0 -0.28125,0 -0.28125,0.1875 C 0.375,0 0.46875,0 0.65625,0 h 5.171875 c 0.234375,0 0.25,-0.015625 0.3125,-0.171875 z m 0,0"
               id="id-5392d433-97de-4934-a974-f907b7649b30" />
          </g>
        </g>
      </g>
    </g>
    <g
       transform="matrix(0.47795212,0,0,0.53107135,28.048979,12.611604)"
       ns1:version="1.10.2"
       ns1:texconverter="pdflatex"
       ns1:pdfconverter="inkscape"
       ns1:text="$E$"
       ns1:preamble="/home/rushil/.config/inkscape/extensions/textext/default_packages.tex"
       ns1:scale="1.0"
       ns1:alignment="middle center"
       ns1:stroke-to-path="0"
       id="g5008"
       ns1:jacobian_sqrt="0.352778"
       style="stroke-width:0.700217">
      <defs
         id="id-1b4dcd4c-3e5b-409d-b325-7ecbaf51ff7c">
        <g
           id="id-3f5c1d01-78bc-4ebd-b1f1-a4ebf406a076">
          <symbol
             overflow="visible"
             id="id-adf8ff16-37d2-41f1-99ff-0abfd76b3d27">
            <path
               style="stroke:none;stroke-width:0"
               d=""
               id="id-6516e96f-434d-4ff8-8619-340dcff68237" />
          </symbol>
          <symbol
             overflow="visible"
             id="id-7f5c8654-793d-4ed0-ae2e-3c11f016642c">
            <path
               style="stroke:none;stroke-width:0"
               d="M 7.0625,-2.328125 C 7.078125,-2.375 7.109375,-2.4375 7.109375,-2.46875 c 0,0 0,-0.109375 -0.125,-0.109375 -0.09375,0 -0.109375,0.0625 -0.125,0.125 C 6.203125,-0.984375 5.84375,-0.3125 4.140625,-0.3125 H 2.6875 c -0.140625,0 -0.171875,0 -0.21875,0 -0.109375,-0.015625 -0.140625,-0.03125 -0.140625,-0.109375 0,-0.03125 0,-0.046875 0.046875,-0.21875 L 3.0625,-3.375 h 0.984375 c 0.84375,0 0.84375,0.21875 0.84375,0.46875 0,0.0625 0,0.1875 -0.0625,0.484375 C 4.8125,-2.375 4.796875,-2.34375 4.796875,-2.3125 c 0,0.046875 0.03125,0.109375 0.125,0.109375 C 5,-2.203125 5.03125,-2.25 5.078125,-2.40625 l 0.5625,-2.328125 c 0,-0.0625 -0.046875,-0.109375 -0.125,-0.109375 -0.078125,0 -0.109375,0.0625 -0.125,0.171875 -0.21875,0.765625 -0.390625,1 -1.3125,1 h -0.9375 l 0.59375,-2.40625 C 3.828125,-6.4375 3.84375,-6.46875 4.28125,-6.46875 H 5.6875 c 1.203125,0 1.515625,0.28125 1.515625,1.109375 0,0.234375 0,0.25 -0.046875,0.53125 0,0.046875 -0.015625,0.125 -0.015625,0.171875 0,0.046875 0.03125,0.125 0.125,0.125 0.109375,0 0.125,-0.0625 0.140625,-0.25 L 7.609375,-6.515625 C 7.640625,-6.78125 7.59375,-6.78125 7.34375,-6.78125 H 2.296875 c -0.1875,0 -0.296875,0 -0.296875,0.203125 0,0.109375 0.09375,0.109375 0.28125,0.109375 0.375,0 0.65625,0 0.65625,0.171875 0,0.046875 0,0.0625 -0.0625,0.25 L 1.5625,-0.78125 c -0.09375,0.390625 -0.109375,0.46875 -0.90625,0.46875 -0.171875,0 -0.28125,0 -0.28125,0.1875 C 0.375,0 0.46875,0 0.65625,0 h 5.171875 c 0.234375,0 0.25,-0.015625 0.3125,-0.171875 z m 0,0"
               id="id-ea464c7c-7cf5-4fd2-8d4e-9a04b4a6ea9a" />
          </symbol>
        </g>
      </defs>
      <g
         id="id-348ce9bc-8da8-46ec-a4ad-2c2a1353a963"
         transform="translate(-149.087,-127.984)"
         style="stroke-width:0.700217">
        <g
           style="fill:#000000;fill-opacity:1;stroke-width:0.700217"
           id="id-62a8fa31-885d-4375-a157-8ee9169afacf">
          <g
             transform="translate(148.712,134.765)"
             id="g1555"
             style="stroke-width:0.700217">
            <path
               style="fill:#2d2d35;fill-opacity:1;stroke:none;stroke-width:0"
               d="M 7.0625,-2.328125 C 7.078125,-2.375 7.109375,-2.4375 7.109375,-2.46875 c 0,0 0,-0.109375 -0.125,-0.109375 -0.09375,0 -0.109375,0.0625 -0.125,0.125 C 6.203125,-0.984375 5.84375,-0.3125 4.140625,-0.3125 H 2.6875 c -0.140625,0 -0.171875,0 -0.21875,0 -0.109375,-0.015625 -0.140625,-0.03125 -0.140625,-0.109375 0,-0.03125 0,-0.046875 0.046875,-0.21875 L 3.0625,-3.375 h 0.984375 c 0.84375,0 0.84375,0.21875 0.84375,0.46875 0,0.0625 0,0.1875 -0.0625,0.484375 C 4.8125,-2.375 4.796875,-2.34375 4.796875,-2.3125 c 0,0.046875 0.03125,0.109375 0.125,0.109375 C 5,-2.203125 5.03125,-2.25 5.078125,-2.40625 l 0.5625,-2.328125 c 0,-0.0625 -0.046875,-0.109375 -0.125,-0.109375 -0.078125,0 -0.109375,0.0625 -0.125,0.171875 -0.21875,0.765625 -0.390625,1 -1.3125,1 h -0.9375 l 0.59375,-2.40625 C 3.828125,-6.4375 3.84375,-6.46875 4.28125,-6.46875 H 5.6875 c 1.203125,0 1.515625,0.28125 1.515625,1.109375 0,0.234375 0,0.25 -0.046875,0.53125 0,0.046875 -0.015625,0.125 -0.015625,0.171875 0,0.046875 0.03125,0.125 0.125,0.125 0.109375,0 0.125,-0.0625 0.140625,-0.25 L 7.609375,-6.515625 C 7.640625,-6.78125 7.59375,-6.78125 7.34375,-6.78125 H 2.296875 c -0.1875,0 -0.296875,0 -0.296875,0.203125 0,0.109375 0.09375,0.109375 0.28125,0.109375 0.375,0 0.65625,0 0.65625,0.171875 0,0.046875 0,0.0625 -0.0625,0.25 L 1.5625,-0.78125 c -0.09375,0.390625 -0.109375,0.46875 -0.90625,0.46875 -0.171875,0 -0.28125,0 -0.28125,0.1875 C 0.375,0 0.46875,0 0.65625,0 h 5.171875 c 0.234375,0 0.25,-0.015625 0.3125,-0.171875 z m 0,0"
               id="id-44c69fe9-c7f4-4dbb-9d98-783a74f04bd9" />
          </g>
        </g>
      </g>
    </g>
  </g>
</svg>
